<?xml version="1.0" encoding="UTF-8" standalone="no"?>
<!DOCTYPE svg PUBLIC "-//W3C//DTD SVG 1.1//EN" "http://www.w3.org/Graphics/SVG/1.1/DTD/svg11.dtd">
<svg width="100%" height="100%" viewBox="0 0 1500 1000" version="1.1" xmlns="http://www.w3.org/2000/svg" xmlns:xlink="http://www.w3.org/1999/xlink" xml:space="preserve" xmlns:serif="http://www.serif.com/" style="fill-rule:evenodd;clip-rule:evenodd;stroke-linejoin:round;stroke-miterlimit:2;">
    <rect x="0" y="0" width="1500" height="1000" style="fill:white;"/>
    <g transform="matrix(1,0,0,1,207.986,302.681)">
        <path d="M152.037,241.144C134.852,258.07 112.659,265.944 88.551,265.944C26.5,265.943 0.241,223.26 0,179.848C-0.235,136.213 28.171,91.856 88.55,91.856C111.228,91.856 132.708,100.439 149.891,117.375L128.891,137.646C117.911,126.915 103.113,121.9 88.551,121.9C48.213,121.9 30.792,151.954 31.03,179.85C31.272,207.514 47.267,236.373 88.551,236.373C103.113,236.373 119.577,230.413 130.557,219.442L152.037,241.142L152.037,241.144Z" style="fill:rgb(2,0,0);fill-rule:nonzero;"/>
    </g>
    <g transform="matrix(1,0,0,1,207.986,302.681)">
        <path d="M188.783,203.464C188.783,221.353 199.524,238.046 220.771,238.046C242.018,238.046 252.75,221.353 252.75,203.464C252.75,185.814 240.339,168.645 220.771,168.645C199.761,168.645 188.783,185.814 188.783,203.464M282.103,203.464C282.103,237.326 258.957,264.748 220.771,264.748C182.585,264.748 159.665,237.326 159.665,203.464C159.665,169.833 183.053,142.169 220.529,142.169C258.005,142.169 282.1,169.833 282.1,203.464" style="fill:rgb(2,0,0);fill-rule:nonzero;"/>
    </g>
    <g transform="matrix(1,0,0,1,207.986,302.681)">
        <path d="M378.993,175.8C370.638,167.937 361.093,165.309 349.877,165.309C336.034,165.309 328.397,169.609 328.397,176.993C328.397,184.63 335.322,188.921 350.352,189.873C372.552,191.306 400.716,196.313 400.716,227.55C400.716,248.297 383.766,266.185 350.116,266.185C331.501,266.185 312.876,263.085 295.7,245.196L310.021,224.448C318.371,233.755 337.464,240.666 350.594,240.906C361.572,241.141 371.83,235.421 371.83,226.838C371.83,218.727 365.147,215.392 348.442,214.438C326.248,212.764 299.753,204.658 299.753,177.944C299.753,150.76 327.919,141.22 349.397,141.22C367.777,141.22 381.62,144.8 395.223,156.72L378.993,175.8Z" style="fill:rgb(2,0,0);fill-rule:nonzero;"/>
    </g>
    <g transform="matrix(1,0,0,1,207.986,302.681)">
        <path d="M442.239,200.362C442.239,220.862 456.08,233.036 473.03,233.036C489.738,233.036 503.58,220.636 503.58,200.362C503.58,180.088 489.738,167.213 473.03,167.213C456.08,167.213 442.239,179.851 442.239,200.362M511.693,132.636L533.174,148.851L520.043,165.551C529.114,175.802 532.454,187.485 532.454,200.366C532.454,214.914 526.961,235.425 507.633,244.248C527.201,254.021 531.979,268.092 531.979,283.111C531.979,315.547 507.16,335.583 473.03,335.583C438.9,335.583 413.356,314.835 413.356,283.111L442.239,283.111C442.239,298.379 456.324,308.397 473.03,308.397C489.736,308.397 502.861,299.334 502.861,283.111C502.861,266.904 487.585,259.511 473.03,259.511C436.276,259.511 413.356,237.097 413.356,200.37C413.356,163.643 440.092,140.752 473.03,140.752C482.34,140.752 491.88,141.942 499.996,147.429L511.696,132.644L511.693,132.636Z" style="fill:rgb(2,0,0);fill-rule:nonzero;"/>
    </g>
    <g transform="matrix(1,0,0,1,207.986,302.681)">
        <path d="M578.035,144.559L580.187,158.159C589.257,143.608 601.423,141.465 613.358,141.465C625.531,141.465 637.226,146.231 643.671,152.671L630.541,177.948C624.578,172.94 619.086,170.312 609.541,170.312C594.266,170.312 580.19,178.425 580.19,200.129L580.19,262.129L551.064,262.129L551.064,144.559L578.035,144.559Z" style="fill:rgb(2,0,0);fill-rule:nonzero;"/>
    </g>
    <g transform="matrix(1,0,0,1,207.986,302.681)">
        <path d="M678.267,203.464C678.267,221.353 689.013,238.046 710.255,238.046C731.497,238.046 742.236,221.353 742.236,203.464C742.236,185.814 729.821,168.645 710.255,168.645C689.255,168.645 678.267,185.814 678.267,203.464M771.592,203.464C771.592,237.326 748.437,264.748 710.255,264.748C672.073,264.748 649.149,237.326 649.149,203.464C649.149,169.833 672.549,142.169 710.013,142.169C747.477,142.169 771.592,169.833 771.592,203.464" style="fill:rgb(2,0,0);fill-rule:nonzero;"/>
    </g>
    <g transform="matrix(1,0,0,1,207.986,302.681)">
        <path d="M1005.24,189.631C1003.33,174.37 991.392,166.74 974.687,166.74C958.934,166.74 946.048,174.37 941.751,189.631L1005.24,189.631ZM941.276,213.718C943.183,228.266 955.839,238.757 976.362,238.757C987.099,238.757 1001.18,234.701 1007.86,227.791L1026.48,246.149C1014.06,259.032 993.778,265.223 975.878,265.223C935.305,265.223 911.197,240.187 911.197,202.505C911.197,166.74 935.547,140.986 973.728,140.986C1013.11,140.986 1037.69,165.307 1033.16,213.718L941.276,213.718Z" style="fill:rgb(2,0,0);fill-rule:nonzero;"/>
    </g>
    <g transform="matrix(1,0,0,1,207.986,302.681)">
        <path d="M962.658,0L885.636,127.549L917.254,127.549L968.311,43.004L1056.96,128.302L1056.96,262.128L1084.03,262.128L1084.03,116.796L962.658,0Z" style="fill:rgb(250,171,24);fill-rule:nonzero;"/>
    </g>
    <g transform="matrix(1,0,0,1,207.986,302.681)">
        <path d="M879.464,144.321L863.236,183.668L845.336,232.794L827.201,183.194L823.81,174.4C819.691,163.034 814.199,152.212 807.457,142.177L763.186,142.177C770.03,145.177 776.328,149.344 783.325,158.477C785.419,161.182 787.284,164.055 788.902,167.069L829.578,262.6L861.084,262.6L911.205,144.318L879.464,144.321Z" style="fill:rgb(250,171,24);fill-rule:nonzero;"/>
    </g>
</svg>
